<svg width="37" height="37" viewBox="0 0 37 37" fill="none" xmlns="http://www.w3.org/2000/svg">
<path fill-rule="evenodd" clip-rule="evenodd" d="M17.3122 22.2125C17.376 22.2843 17.4385 22.3541 17.4997 22.4218V0H6C2.68629 0 0 2.68629 0 6V31C0 34.3137 2.68629 37 6 37H31C34.3137 37 37 34.3137 37 31V6C37 2.68629 34.3137 0 31 0H19.4997V22.3686C19.5445 22.3183 19.5901 22.267 19.6364 22.2146C20.571 21.1581 21.7436 19.7405 22.8973 18.3121C24.0491 16.886 25.1744 15.4589 26.0122 14.3876C26.4309 13.8522 26.7775 13.406 27.0194 13.0939C27.1403 12.9378 27.2349 12.8153 27.2993 12.7319L27.3727 12.6368L27.3914 12.6125L27.396 12.6065L27.3972 12.605L27.3974 12.6046C27.3975 12.6046 27.3975 12.6045 28.1901 13.2142C28.9828 13.824 28.9827 13.824 28.9826 13.8241L28.9823 13.8246L28.981 13.8262L28.9761 13.8326L28.957 13.8574L28.8826 13.9538C28.8175 14.0382 28.7221 14.1617 28.6004 14.3188C28.357 14.6329 28.0085 15.0815 27.5876 15.6197C26.7461 16.6957 25.6139 18.1317 24.4532 19.5688C23.2944 21.0034 22.0994 22.4489 21.1344 23.5398C20.654 24.0828 20.2168 24.5538 19.8626 24.8948C19.6878 25.0632 19.5128 25.2198 19.35 25.3407C19.2693 25.4007 19.17 25.4682 19.0592 25.5247C18.9705 25.5699 18.7649 25.6666 18.4997 25.6666C18.2525 25.6666 18.0563 25.585 17.9556 25.5373C17.8392 25.4821 17.7347 25.4151 17.6486 25.354C17.4757 25.2316 17.2929 25.073 17.1122 24.9031C16.7465 24.5594 16.3019 24.0859 15.8179 23.5419C14.8455 22.4489 13.6527 21.0015 12.5008 19.5664C11.3467 18.1286 10.2249 16.6919 9.39222 15.6156C8.9757 15.0772 8.63113 14.6284 8.39057 14.3141C8.27029 14.1569 8.17599 14.0334 8.11167 13.949L8.03819 13.8524L8.01925 13.8275L8.0144 13.8211L8.01314 13.8195L8.01281 13.8191C8.01273 13.8189 8.01268 13.8189 8.80918 13.2142C9.60568 12.6096 9.60569 12.6096 9.60574 12.6097L9.60601 12.61L9.60713 12.6115L9.61172 12.6176L9.63011 12.6417L9.70244 12.7368C9.76597 12.8201 9.85942 12.9426 9.9788 13.0986C10.2176 13.4106 10.56 13.8565 10.9741 14.3918C11.8026 15.4627 12.9165 16.8892 14.0605 18.3145C15.2067 19.7424 16.3742 21.1582 17.3122 22.2125Z" fill="white"/>
</svg>
