<svg width="32" height="37" viewBox="0 0 32 37" fill="none" xmlns="http://www.w3.org/2000/svg">
<rect x="21.9131" y="0.652344" width="3.13043" height="9.3913" rx="1" fill="white"/>
<rect x="7.82617" y="0.652344" width="3.13043" height="9.3913" rx="1" fill="white"/>
<path fill-rule="evenodd" clip-rule="evenodd" d="M12.5219 5.34814H20.348V8.47863C20.348 10.2075 21.7495 11.6091 23.4784 11.6091C25.2073 11.6091 26.6089 10.2075 26.6089 8.47862V5.34814H27.3043C29.5135 5.34814 31.3043 7.13901 31.3043 9.34814V32.6525C31.3043 34.8616 29.5135 36.6525 27.3043 36.6525H4C1.79086 36.6525 0 34.8616 0 32.6525V9.34815C0 7.13901 1.79086 5.34814 4 5.34814H6.26104V8.47863C6.26104 10.2075 7.66258 11.6091 9.39147 11.6091C11.1204 11.6091 12.5219 10.2075 12.5219 8.47862V5.34814ZM26.832 24.7269H20.8692V30.6897H26.832V24.7269Z" fill="white"/>
</svg>
