<svg width="37" height="37" viewBox="0 0 37 37" fill="none" xmlns="http://www.w3.org/2000/svg">
<path fill-rule="evenodd" clip-rule="evenodd" d="M0 10C0 4.47715 4.47715 0 10 0H27C32.5228 0 37 4.47715 37 10V27C37 32.5228 32.5228 37 27 37H10C4.47715 37 0 32.5228 0 27V10ZM18.5002 12.0999C14.9656 12.0999 12.1002 14.9653 12.1002 18.4999C12.1002 22.0346 14.9656 24.8999 18.5002 24.8999C22.0348 24.8999 24.9002 22.0346 24.9002 18.4999C24.9002 14.9653 22.0348 12.0999 18.5002 12.0999ZM10.1002 18.4999C10.1002 13.8608 13.861 10.0999 18.5002 10.0999C23.1394 10.0999 26.9002 13.8608 26.9002 18.4999C26.9002 23.1391 23.1394 26.8999 18.5002 26.8999C13.861 26.8999 10.1002 23.1391 10.1002 18.4999ZM30.6002 6.47497C30.6002 6.51639 30.5666 6.54997 30.5252 6.54997C30.4838 6.54997 30.4502 6.51639 30.4502 6.47497C30.4502 6.43355 30.4838 6.39997 30.5252 6.39997C30.5666 6.39997 30.6002 6.43355 30.6002 6.47497ZM30.5252 4.54997C29.4621 4.54997 28.6002 5.41183 28.6002 6.47497C28.6002 7.53812 29.4621 8.39997 30.5252 8.39997C31.5884 8.39997 32.4502 7.53812 32.4502 6.47497C32.4502 5.41183 31.5884 4.54997 30.5252 4.54997Z" fill="white"/>
</svg>
