<svg width="71" height="60" viewBox="0 0 71 60" fill="none" xmlns="http://www.w3.org/2000/svg">
<circle cx="29.4751" cy="30.2612" r="25.4751" stroke="white" stroke-width="8"/>
<mask id="path-2-inside-1_55_34" fill="white">
<path d="M41.6526 0.0078125C57.6 0.411734 70.4033 13.4661 70.4036 29.5107L70.3948 30.2725C70.0238 44.9198 58.9803 56.913 44.7502 58.7715C51.5115 55.155 56.8384 49.2091 59.6565 42.0039C62.042 38.4278 63.4338 34.1319 63.4338 29.5107C63.4337 23.8772 61.3669 18.7268 57.9504 14.7754C54.2895 8.04985 48.3122 2.76848 41.0901 0L41.6526 0.0078125Z"/>
</mask>
<path d="M41.6526 0.0078125L41.8552 -7.98962L41.8094 -7.99078L41.7637 -7.99142L41.6526 0.0078125ZM70.4036 29.5107L78.403 29.603L78.4036 29.5568L78.4036 29.5106L70.4036 29.5107ZM70.3948 30.2725L78.3922 30.475L78.3936 30.4199L78.3942 30.3648L70.3948 30.2725ZM44.7502 58.7715L40.977 51.7172L45.7863 66.7041L44.7502 58.7715ZM59.6565 42.0039L53.0013 37.5644L52.5212 38.2842L52.2061 39.0899L59.6565 42.0039ZM63.4338 29.5107L71.4338 29.5107L71.4338 29.5106L63.4338 29.5107ZM57.9504 14.7754L50.924 18.6001L51.3356 19.3564L51.8988 20.0078L57.9504 14.7754ZM41.0901 0L41.2012 -7.99923L38.2266 7.46997L41.0901 0ZM41.6526 0.0078125L41.45 8.00525C53.0704 8.29957 62.4034 17.8164 62.4036 29.5109L70.4036 29.5107L78.4036 29.5106C78.4032 9.11575 62.1296 -7.4761 41.8552 -7.98962L41.6526 0.0078125ZM70.4036 29.5107L62.4041 29.4184L62.3953 30.1802L70.3948 30.2725L78.3942 30.3648L78.403 29.603L70.4036 29.5107ZM70.3948 30.2725L62.3973 30.0699C62.1272 40.7353 54.0787 49.4852 43.7142 50.8389L44.7502 58.7715L45.7863 66.7041C63.8818 64.3407 77.9204 49.1044 78.3922 30.475L70.3948 30.2725ZM44.7502 58.7715L48.5235 65.8258C56.9493 61.3189 63.5889 53.9126 67.1069 44.9179L59.6565 42.0039L52.2061 39.0899C50.0879 44.5057 46.0736 48.9911 40.977 51.7172L44.7502 58.7715ZM59.6565 42.0039L66.3116 46.4434C69.5458 41.5951 71.4338 35.7623 71.4338 29.5107H63.4338H55.4338C55.4338 32.5016 54.5383 35.2605 53.0013 37.5644L59.6565 42.0039ZM63.4338 29.5107L71.4338 29.5106C71.4337 21.8835 68.6272 14.8924 64.0021 9.54301L57.9504 14.7754L51.8988 20.0078C54.1066 22.5612 55.4338 25.871 55.4338 29.5109L63.4338 29.5107ZM57.9504 14.7754L64.9769 10.9506C60.4141 2.56827 52.9684 -4.01429 43.9536 -7.46997L41.0901 0L38.2266 7.46997C43.6561 9.55126 48.1649 13.5314 50.924 18.6001L57.9504 14.7754ZM41.0901 0L40.979 7.99923L41.5415 8.00704L41.6526 0.0078125L41.7637 -7.99142L41.2012 -7.99923L41.0901 0Z" fill="white" mask="url(#path-2-inside-1_55_34)"/>
<path d="M38.5833 25.8187L29.0624 33.386L24.325 29.8039" stroke="white" stroke-width="8" stroke-linecap="square"/>
</svg>
