<svg width="34" height="37" viewBox="0 0 34 37" fill="none" xmlns="http://www.w3.org/2000/svg">
<path d="M6.31869 12.5959C7.6932 16.3323 6.98432 17.2407 9.38608 16.405C11.6664 15.6116 16.9585 4.08156 17.4876 2.91799C17.5187 2.84968 17.5444 2.78708 17.5739 2.71809C18.9238 -0.437283 23.2204 -0.161995 22.0764 3.8704C22.0014 4.13496 21.8847 4.3858 21.7523 4.62687L16.3285 14.5077C16.2007 14.7406 16.2824 15.0328 16.5124 15.1657C16.7446 15.2997 17.0408 15.2229 17.1772 14.9921C18.259 13.1621 22.6386 5.78743 24.6591 2.89862C26.9742 -0.411369 30.0422 2.67304 28.5987 5.17314C27.3224 7.38383 21.9628 15.8461 20.739 17.7757C20.6012 17.9929 20.6753 18.2762 20.8981 18.4048C21.0971 18.5197 21.3486 18.4695 21.485 18.2846C22.4973 16.9118 26.4648 11.4936 27.9855 8.85971C29.7351 5.82926 33.5318 8.52633 32.0009 11.178C30.6444 13.5273 24.8433 21.2403 23.5384 22.9682C23.3977 23.1545 23.4556 23.4169 23.6578 23.5336C23.8291 23.6326 24.0454 23.5896 24.1633 23.4307C24.9751 22.3362 28.0003 18.3017 29.5014 16.9069C31.2447 15.2871 33.8292 17.2843 32.9106 18.8753C32.0282 20.4037 23.5442 31.0615 22.8784 31.8972C22.8477 31.9357 22.8212 31.9679 22.7892 32.0055C19.3207 36.0902 15.1116 39.8044 6.31772 32.9172C3.32052 30.2609 2.18223 27.6641 2.71621 18.9885C2.76214 18.2424 2.65087 17.4901 2.38065 16.7931C1.38046 14.2132 0.576909 12.0327 0.435438 11.3961C-0.264448 8.24683 4.94417 8.85955 6.31869 12.5959Z" fill="white"/>
</svg>
