<svg width="39" height="36" viewBox="0 0 39 36" fill="none" xmlns="http://www.w3.org/2000/svg">
<path fill-rule="evenodd" clip-rule="evenodd" d="M38.7032 17.4164C38.7032 27.0353 30.0392 34.8329 19.3516 34.8329C16.8224 34.8329 14.4066 34.3962 12.192 33.602L1.93485 35.8L4.54268 28.6285C1.70797 25.5989 0 21.6872 0 17.4164C0 7.7976 8.664 0 19.3516 0C30.0392 0 38.7032 7.7976 38.7032 17.4164ZM9.42116 18.8423C10.4618 18.8423 11.3054 17.9987 11.3054 16.9581C11.3054 15.9174 10.4618 15.0738 9.42116 15.0738C8.38052 15.0738 7.53692 15.9174 7.53692 16.9581C7.53692 17.9987 8.38052 18.8423 9.42116 18.8423ZM20.7259 16.9581C20.7259 17.9987 19.8823 18.8423 18.8416 18.8423C17.801 18.8423 16.9574 17.9987 16.9574 16.9581C16.9574 15.9174 17.801 15.0738 18.8416 15.0738C19.8823 15.0738 20.7259 15.9174 20.7259 16.9581ZM28.2635 18.8423C29.3041 18.8423 30.1477 17.9987 30.1477 16.9581C30.1477 15.9174 29.3041 15.0738 28.2635 15.0738C27.2228 15.0738 26.3792 15.9174 26.3792 16.9581C26.3792 17.9987 27.2228 18.8423 28.2635 18.8423Z" fill="white"/>
</svg>
