<svg width="38" height="32" viewBox="0 0 38 32" fill="none" xmlns="http://www.w3.org/2000/svg">
<path d="M35.4044 0.130438L0.989465 13.5203C0.968989 13.5282 0.94914 13.5377 0.930088 13.5487C0.651016 13.7076 -1.29655 14.9053 1.44964 15.9792L1.47784 15.9896L9.67262 18.6515C9.73514 18.6719 9.80134 18.6783 9.8666 18.6703C9.93185 18.6623 9.99459 18.6401 10.0504 18.6052L30.3759 5.85488C30.4257 5.8236 30.4812 5.80255 30.5392 5.79294C30.822 5.74592 31.6362 5.65787 31.1211 6.31531C30.5385 7.06155 16.6554 19.5701 15.1145 20.9574C15.0257 21.0376 14.9707 21.1489 14.9609 21.2685L14.2884 29.328C14.2884 29.4101 14.3073 29.491 14.3438 29.5645C14.3802 29.6379 14.4332 29.7018 14.4985 29.7511C14.5911 29.8098 14.7001 29.837 14.8093 29.8286C14.9185 29.8203 15.0221 29.7769 15.1049 29.7048L19.9738 25.3296C20.0507 25.2605 20.1488 25.22 20.2518 25.2147C20.3549 25.2094 20.4566 25.2397 20.5401 25.3005L29.0347 31.5018L29.0622 31.5204C29.2678 31.6481 31.4885 32.9473 32.1298 30.0459L37.9932 2.01321C38.0014 1.92441 38.0808 0.948321 37.3869 0.371474C36.658 -0.231491 35.6263 0.0729767 35.4712 0.105811C35.4483 0.112216 35.426 0.120451 35.4044 0.130438Z" fill="white"/>
</svg>
