<svg width="37" height="37" viewBox="0 0 37 37" fill="none" xmlns="http://www.w3.org/2000/svg">
<path d="M31 0C34.3137 0 37 2.68629 37 6V31C37 34.3137 34.3137 37 31 37H19.5V16.7266C19.5601 16.7932 19.6247 16.8601 19.6875 16.9307C20.6254 17.9849 21.7935 19.4014 22.9395 20.8291C24.083 22.2539 25.1971 23.6803 26.0254 24.751C26.4393 25.286 26.7818 25.733 27.0205 26.0449C27.1396 26.2005 27.2334 26.323 27.2969 26.4062C27.3282 26.4474 27.3529 26.4796 27.3691 26.501C27.377 26.5113 27.3837 26.5201 27.3877 26.5254C27.3895 26.5277 27.3916 26.53 27.3926 26.5312L27.3936 26.5332L28.1904 25.9287C28.9257 25.3705 28.9821 25.3276 28.9863 25.3242V25.3232L28.9854 25.3223C28.9843 25.3209 28.9824 25.318 28.9805 25.3154C28.9763 25.3099 28.9691 25.3017 28.9609 25.291C28.9443 25.2692 28.9196 25.2363 28.8877 25.1943C28.8235 25.1101 28.7294 24.9859 28.6094 24.8291C28.3689 24.5149 28.0238 24.0655 27.6074 23.5273C26.7749 22.4512 25.6528 21.0146 24.499 19.5771C23.3474 18.1423 22.1539 16.6945 21.1816 15.6016C20.698 15.0579 20.2532 14.5839 19.8877 14.2402C19.7072 14.0706 19.5233 13.9115 19.3506 13.7891C19.2646 13.7282 19.1599 13.6606 19.0439 13.6055C18.9433 13.5577 18.7468 13.4767 18.5 13.4766C18.235 13.4766 18.0292 13.5729 17.9404 13.6182C17.8296 13.6747 17.7301 13.7428 17.6494 13.8027C17.4867 13.9236 17.3114 14.0798 17.1367 14.248C16.7825 14.5891 16.3456 15.0605 15.8652 15.6035C14.9005 16.6941 13.7054 18.1389 12.5469 19.5732C11.3864 21.01 10.2536 22.4465 9.41211 23.5225C8.99154 24.0602 8.64278 24.5091 8.39941 24.8232C8.27797 24.98 8.18226 25.1042 8.11719 25.1885C8.08491 25.2303 8.05982 25.2633 8.04297 25.2852C8.03485 25.2957 8.02776 25.304 8.02344 25.3096C8.02153 25.312 8.01964 25.3149 8.01855 25.3164L8.0166 25.3184L9.60254 26.5371L9.60352 26.5361C9.60457 26.5347 9.60657 26.5317 9.6084 26.5293C9.61253 26.524 9.6192 26.5159 9.62695 26.5059C9.64348 26.4844 9.66827 26.4515 9.7002 26.4102C9.76458 26.3267 9.85985 26.2035 9.98047 26.0479C10.2222 25.7358 10.5691 25.2897 10.9873 24.7549C11.8251 23.6837 12.9509 22.2568 14.1025 20.8311C15.2562 19.4027 16.4287 17.9852 17.3633 16.9287C17.409 16.8771 17.4557 16.8279 17.5 16.7783V37H6C2.68629 37 0 34.3137 0 31V6C5.15405e-07 2.68629 2.68629 0 6 0H31Z" fill="white"/>
</svg>
